<svg width="72" height="72" viewBox="0 0 72 72" fill="none" xmlns="http://www.w3.org/2000/svg">
<path d="M37.7099 52.8837C36.7599 53.8937 36.1599 54.4837 36.1599 54.4837C35.8399 54.9437 36.5899 54.0238 36.1599 54.4837C35.9099 44.6337 33.4999 35.9237 24.5499 30.3137C24.4299 30.2337 22.4299 29.0437 22.4299 29.0437C22.7099 28.6937 25.1299 28.9037 25.8199 29.3737C35.5599 36.0237 38.4299 45.8737 37.7099 52.8837Z" fill="url(#paint0_linear_1044_3453)"/>
<path d="M39.7299 27.0538V63.9238C39.7299 64.3038 39.4199 64.6038 39.0499 64.6038H36.5999C36.2199 64.6038 35.9199 64.2938 35.9199 63.9238V34.6638C37.9299 29.1538 38.1999 24.1238 39.7299 27.0538Z" fill="url(#paint1_linear_1044_3453)"/>
<path d="M35.9099 63.9236V34.6637C36.7599 32.3237 36.6999 32.7336 37.1599 32.7636C37.1599 60.5436 36.5899 64.6136 36.5899 64.6136C36.2099 64.6136 35.9099 64.3037 35.9099 63.9337V63.9236Z" fill="url(#paint2_linear_1044_3453)"/>
<path d="M39.7299 28.2539V32.1639C36.9599 34.7139 37.1699 37.8639 37.1699 37.8639C37.1699 37.8639 36.4499 34.1939 35.9199 34.6639V29.7239L39.7299 28.2539Z" fill="url(#paint3_linear_1044_3453)"/>
<path d="M35.9101 29.7236C35.4601 25.4836 46.2101 5.10357 64.6001 7.14357C64.6001 7.14357 60.7001 8.94357 58.8801 14.1236C57.5301 17.9636 55.2701 22.6336 48.0601 26.0136C39.9201 29.8236 35.9101 29.7236 35.9101 29.7236Z" fill="url(#paint4_linear_1044_3453)"/>
<path d="M50.69 11.1437C54.2 8.51374 59.23 8.53374 55.34 11.7737C51.98 14.5837 47.04 23.1437 38.93 21.7637C38.11 23.1137 37.45 24.4037 36.96 25.5637L37.37 29.5937C39.2 29.3237 42.75 28.5037 48.07 26.0137C55.28 22.6337 57.54 17.9637 58.89 14.1237C60.71 8.93374 64.61 7.14374 64.61 7.14374C57.69 6.37374 51.86 8.78374 47.29 12.3037C48.15 12.4037 49.29 12.1837 50.69 11.1337V11.1437Z" fill="url(#paint5_linear_1044_3453)"/>
<path d="M64.6 7.14395C64.19 7.09395 63.79 7.06395 63.39 7.04395C59.1 7.64395 59.26 10.7839 57.95 12.2839C56.64 13.7839 52.32 14.3839 52.32 14.3839C54.53 14.8839 57.3 13.7739 57.3 13.7739C57.3 13.7739 57.16 16.4739 54.71 17.6639C52.27 18.8539 46.62 18.5139 46.62 18.5139C48.42 19.6639 54.89 18.6839 54.89 18.6839C52.12 21.4339 48.32 22.0639 45.15 21.7639C42.81 21.5339 40.52 21.3939 38.49 22.4839C38.14 23.0939 37.82 23.6939 37.54 24.2739L42.95 24.9839L50.37 24.7939C55.79 21.5639 57.69 17.5239 58.89 14.1239C60.71 8.93395 64.61 7.14395 64.61 7.14395H64.6Z" fill="url(#paint6_linear_1044_3453)"/>
<path d="M56.6201 17.3539C54.9601 19.0539 49.8401 19.2639 47.4301 18.5939C45.1001 17.9539 47.5701 20.2839 56.2201 19.5139C56.7801 18.7239 57.2401 17.9339 57.6301 17.1439C57.4801 16.8239 57.1801 16.7739 56.6101 17.3539H56.6201Z" fill="#407817"/>
<path d="M58.5101 12.5139C57.5501 13.9539 54.4601 14.4939 52.6501 14.3439C50.9101 14.2039 52.9601 15.5239 58.9901 13.8339C59.1801 13.3239 59.3901 12.8539 59.6101 12.4139C59.3401 12.0239 58.9701 11.8239 58.5101 12.5039V12.5139Z" fill="#407817"/>
<path d="M63.64 7.72395H63.66C64.23 7.31395 64.61 7.14395 64.61 7.14395C64.39 7.12395 64.17 7.10395 63.94 7.08395C63.76 7.07395 63.58 7.05395 63.39 7.04395C62.62 7.30395 61.67 7.83395 60.66 8.87395C58.2 11.4039 57.69 17.2739 54.95 19.5739C52.21 21.8739 47.62 25.8539 40.13 27.0539C38.57 27.3039 37.23 27.8639 36 28.4739C35.9 28.9739 35.87 29.3939 35.91 29.7139C35.91 29.7139 39.93 29.8239 48.06 26.0039C55.27 22.6239 57.53 17.9539 58.88 14.1139C59.39 12.6539 60.07 11.4639 60.77 10.5039C60.93 10.2939 61.09 10.0939 61.24 9.90395C61.48 9.61395 61.72 9.35395 61.95 9.12395C62.57 8.49395 63.16 8.03395 63.62 7.71395L63.64 7.72395Z" fill="#407817"/>
<path d="M7 24.5737C11.31 23.9737 13.56 32.9737 20.87 37.0637C29.06 41.6337 32.98 38.9737 33.03 36.9737C33.03 36.9737 37.05 30.1137 29.82 25.9237C24.71 22.9637 12.32 19.3537 7 24.5837" fill="url(#paint7_linear_1044_3453)"/>
<path d="M34.15 32.7038C33.13 30.5438 31.08 28.1038 27.01 26.0138C17.12 20.9438 10.99 24.9038 16.13 26.1038C20.68 27.1638 23.77 36.5538 28.67 39.5738C26.74 39.5538 24.15 38.8838 20.88 37.0538C13.56 32.9738 11.31 23.9638 7.01001 24.5638C12.33 19.3338 24.72 22.9338 29.83 25.9038C33.28 27.9038 34.17 30.5138 34.15 32.6938V32.7038Z" fill="url(#paint8_linear_1044_3453)"/>
<path d="M32.56 34.8337C32.87 35.4537 33.12 35.9837 33.31 36.4337C33.15 36.7737 33.0399 36.9637 33.0399 36.9637C33.0399 37.0537 33.0299 37.1437 33.0099 37.2337C32.9399 37.5837 32.6999 37.9337 32.3199 38.2437C31.9199 34.4637 26.8099 29.2037 20.9399 26.7837C20.9399 26.7837 29.4599 28.6637 32.5699 34.8237L32.56 34.8337Z" fill="url(#paint9_linear_1044_3453)"/>
<path d="M33.4899 36.2439C33.2699 36.6939 33.1199 36.9639 33.1199 36.9639C33.0699 37.1639 32.9999 37.3739 32.8999 37.5839C32.9099 34.0439 27.6899 29.2839 22.2099 27.2439C22.1399 27.2139 20.9199 26.7839 20.9199 26.7839C20.9699 26.6239 22.1599 26.6339 22.5899 26.8039C28.6699 29.2539 32.2399 33.2739 33.4799 36.2439H33.4899Z" fill="url(#paint10_linear_1044_3453)"/>
<path d="M15.01 29.7637C15.57 31.7237 18.28 34.1037 18.28 34.1037L19.95 34.2837C19.95 34.2837 19.18 34.8937 20.29 35.8537C25.74 40.5737 29.55 38.4437 32.56 37.6537L32.74 37.9137C31.67 39.6137 27.8 40.9137 20.89 37.0537C13.57 32.9737 11.32 23.9637 7.02002 24.5637C10.23 23.1537 14.47 27.8037 15.03 29.7537L15.01 29.7637Z" fill="url(#paint11_linear_1044_3453)"/>
<path d="M25.09 34.5738C23.8 34.2038 21.15 33.7838 16.84 33.9338C16.62 33.7138 16.3999 33.4838 16.1899 33.2538C16.1899 33.2538 17.4499 33.0038 18.7199 33.1638C20.6299 33.4038 23.5 33.9938 25.09 34.5638V34.5738Z" fill="url(#paint12_linear_1044_3453)"/>
<path d="M16.8499 33.9438C17.0099 34.1038 17.1698 34.2538 17.3298 34.4038C17.1698 34.2538 17.0099 34.0938 16.8499 33.9438Z" fill="#4B861C"/>
<path d="M18.1601 35.1537C17.7001 34.7637 17.2601 34.3537 16.8501 33.9337C25.1901 33.6337 27.3501 35.5037 25.3301 34.9337C23.3701 34.3837 19.7901 34.1437 18.1601 35.1437V35.1537Z" fill="url(#paint13_linear_1044_3453)"/>
<path d="M14.7401 29.4638L13.4501 29.9138C13.1601 29.5338 12.8901 29.1638 12.6101 28.8038C16.0301 28.0438 20.3001 29.8638 21.5501 30.3438L18.9201 29.6738L14.7301 29.4638H14.7401Z" fill="url(#paint14_linear_1044_3453)"/>
<path d="M21.1101 30.4636C19.1701 29.9236 15.6601 29.6836 14.0101 30.6336C13.7001 30.2336 13.4001 29.8336 13.1101 29.4436C21.0601 29.2336 23.0901 31.0136 21.1101 30.4636Z" fill="url(#paint15_linear_1044_3453)"/>
<defs>
<linearGradient id="paint0_linear_1044_3453" x1="29.8399" y1="36.9737" x2="32.5299" y2="43.8237" gradientUnits="userSpaceOnUse">
<stop stop-color="#407817"/>
<stop offset="1" stop-color="#34660F"/>
</linearGradient>
<linearGradient id="paint1_linear_1044_3453" x1="37.7199" y1="23.0038" x2="37.9399" y2="69.3338" gradientUnits="userSpaceOnUse">
<stop stop-color="#4B861C"/>
<stop offset="1" stop-color="#76A550"/>
</linearGradient>
<linearGradient id="paint2_linear_1044_3453" x1="36.1199" y1="50.7336" x2="40.5899" y2="15.9937" gradientUnits="userSpaceOnUse">
<stop stop-color="#407817"/>
<stop offset="1" stop-color="#34660F"/>
</linearGradient>
<linearGradient id="paint3_linear_1044_3453" x1="36.0999" y1="44.3039" x2="38.1499" y2="28.3939" gradientUnits="userSpaceOnUse">
<stop stop-color="#407817"/>
<stop offset="1" stop-color="#34660F"/>
</linearGradient>
<linearGradient id="paint4_linear_1044_3453" x1="37.3687" y1="12.1545" x2="52.0925" y2="19.3319" gradientUnits="userSpaceOnUse">
<stop stop-color="#4B861C"/>
<stop offset="1" stop-color="#76A550"/>
</linearGradient>
<linearGradient id="paint5_linear_1044_3453" x1="64.2655" y1="24.3024" x2="33.2571" y2="10.4413" gradientUnits="userSpaceOnUse">
<stop stop-color="#4B861C"/>
<stop offset="1" stop-color="#4B861C" stop-opacity="0"/>
</linearGradient>
<linearGradient id="paint6_linear_1044_3453" x1="55.8619" y1="17.8312" x2="49.0594" y2="14.8219" gradientUnits="userSpaceOnUse">
<stop stop-color="#4B861C"/>
<stop offset="1" stop-color="#4B861C" stop-opacity="0"/>
</linearGradient>
<linearGradient id="paint7_linear_1044_3453" x1="38.7895" y1="44.4052" x2="19.8779" y2="25.5588" gradientUnits="userSpaceOnUse">
<stop stop-color="#4B861C"/>
<stop offset="1" stop-color="#76A550"/>
</linearGradient>
<linearGradient id="paint8_linear_1044_3453" x1="-31.7598" y1="-1.07268" x2="37.5304" y2="37.5096" gradientUnits="userSpaceOnUse">
<stop stop-color="#4B861C"/>
<stop offset="1" stop-color="#4B861C" stop-opacity="0"/>
</linearGradient>
<linearGradient id="paint9_linear_1044_3453" x1="28.4374" y1="40.1498" x2="23.1818" y2="26.8463" gradientUnits="userSpaceOnUse">
<stop stop-color="#4B861C"/>
<stop offset="1" stop-color="#4B861C" stop-opacity="0"/>
</linearGradient>
<linearGradient id="paint10_linear_1044_3453" x1="23.5874" y1="27.9439" x2="31.2581" y2="41.1612" gradientUnits="userSpaceOnUse">
<stop stop-color="#4B861C"/>
<stop offset="1" stop-color="#407817"/>
</linearGradient>
<linearGradient id="paint11_linear_1044_3453" x1="25.6419" y1="38.6685" x2="9.09051" y2="20.1942" gradientUnits="userSpaceOnUse">
<stop stop-color="#4B861C"/>
<stop offset="1" stop-color="#4B861C" stop-opacity="0"/>
</linearGradient>
<linearGradient id="paint12_linear_1044_3453" x1="13.0608" y1="30.937" x2="22.0661" y2="32.0673" gradientUnits="userSpaceOnUse">
<stop stop-color="#4B861C"/>
<stop offset="1" stop-color="#4B861C" stop-opacity="0"/>
</linearGradient>
<linearGradient id="paint13_linear_1044_3453" x1="20.1859" y1="31.0579" x2="15.8326" y2="33.4754" gradientUnits="userSpaceOnUse">
<stop stop-color="#4B861C"/>
<stop offset="1" stop-color="#407817"/>
</linearGradient>
<linearGradient id="paint14_linear_1044_3453" x1="9.70313" y1="26.4367" x2="17.0303" y2="28.0205" gradientUnits="userSpaceOnUse">
<stop stop-color="#4B861C"/>
<stop offset="1" stop-color="#4B861C" stop-opacity="0"/>
</linearGradient>
<linearGradient id="paint15_linear_1044_3453" x1="17.3163" y1="25.8933" x2="12.9694" y2="28.309" gradientUnits="userSpaceOnUse">
<stop stop-color="#4B861C"/>
<stop offset="1" stop-color="#407817"/>
</linearGradient>
</defs>
</svg>
